<svg width="61" height="61" viewBox="0 0 61 61" fill="none" xmlns="http://www.w3.org/2000/svg">
<path fill-rule="evenodd" clip-rule="evenodd" d="M14.4378 14.4378C3.48827 25.3873 0 29.2681 0 30.5C0 32.8432 28.1568 61 30.5 61C32.8432 61 61 32.8432 61 30.5C61 28.1568 32.8432 0 30.5 0C29.2681 0 25.3873 3.48827 14.4378 14.4378ZM32.4321 17.5017C32.934 18.1064 33.1343 20.7824 33.0103 25.2222C32.8538 30.8401 32.6198 32.143 31.6603 32.7471C30.8156 33.2782 30.1844 33.2782 29.3397 32.7471C28.3803 32.143 28.1462 30.8401 27.9897 25.2222C27.7928 18.1734 28.2563 16.5761 30.5 16.5761C31.1398 16.5761 32.0091 16.9925 32.4321 17.5017ZM33.0262 41.606C32.8313 43.9664 32.7033 44.0924 30.5 44.0924C28.2967 44.0924 28.1687 43.9664 27.9738 41.606L27.7676 39.1196H30.5H33.2324L33.0262 41.606Z" fill="#1D1D1D"/>
</svg>
