<svg width="36" height="40" viewBox="0 0 36 40" fill="none" xmlns="http://www.w3.org/2000/svg">
<path fill-rule="evenodd" clip-rule="evenodd" d="M15.077 0.336627C12.8903 1.00885 10.4405 2.79549 9.23585 4.59699C6.50217 8.68371 6.58726 12.3842 9.55319 18.3927C11.7629 22.8696 17.0557 30.2575 18.0533 30.2575C19.0509 30.2575 24.3438 22.8696 26.5535 18.3927C29.5854 12.2504 29.5845 8.10377 26.5504 4.09664C24.214 1.0106 18.7306 -0.786523 15.077 0.336627ZM20.7792 8.09808C21.2055 8.52757 21.6696 9.59605 21.8107 10.4725C22.0316 11.8445 21.8836 12.2517 20.7449 13.3989C18.9837 15.1733 17.1417 15.1921 15.4152 13.4527C14.0494 12.0768 13.8393 10.7756 14.7036 9.05416C15.8159 6.83935 19.0279 6.33419 20.7792 8.09808ZM7.20024 26.9323C1.38038 28.8086 -1.13103 31.5622 0.476966 34.3045C2.80821 38.2801 13.1252 40.8413 22.3946 39.7457C29.5381 38.9016 34.3269 36.867 35.6336 34.1212C37.0119 31.2254 34.4649 28.5851 28.6082 26.8378L26.3568 26.166L25.2437 27.636C24.6316 28.4442 24.1311 29.1978 24.1311 29.3102C24.1311 29.4222 25.1565 29.7572 26.4102 30.0546C28.8604 30.6354 31.713 31.9305 32.1645 32.6665C32.514 33.2364 28.5939 35.0073 25.5207 35.6677C22.5539 36.305 13.5528 36.305 10.586 35.6677C7.51281 35.0073 3.59267 33.2364 3.94214 32.6665C4.39363 31.9305 7.24626 30.6354 9.69645 30.0546C10.9502 29.7572 11.9704 29.3863 11.9639 29.2297C11.9574 29.0736 11.4204 28.3191 10.77 27.5542L9.58792 26.1629L7.20024 26.9323Z" fill="#1D1D1D"/>
</svg>
