<svg width="42" height="37" viewBox="0 0 42 37" fill="none" xmlns="http://www.w3.org/2000/svg">
<path fill-rule="evenodd" clip-rule="evenodd" d="M12.5662 1.30866C11.9858 2.04369 11.5334 3.34987 11.5334 4.28852V5.95973H7.10446C0.403578 5.95973 0.363718 6.01188 0.161431 15.1025L0 22.349H9.00527C16.3703 22.349 18.0105 22.2228 18.0105 21.6572C18.0105 20.8263 19.0823 20.3624 21 20.3624C22.9177 20.3624 23.9895 20.8263 23.9895 21.6572C23.9895 22.2228 25.6297 22.349 32.9947 22.349H42L41.8386 15.1025C41.6363 6.01188 41.5964 5.95973 34.8955 5.95973H30.4666V4.28852C30.4666 3.34987 30.0142 2.04369 29.4338 1.30866L28.4014 0H21H13.5986L12.5662 1.30866ZM26.9789 4.4698V5.95973H21H15.0211V4.4698V2.97987H21H26.9789V4.4698ZM0.07374 30.0192C0.07374 33.7365 0.210259 34.3713 1.276 35.6064L2.47876 37H21H39.5212L40.724 35.6064C41.7897 34.3713 41.9263 33.7365 41.9263 30.0192V25.8255H32.9579C25.6242 25.8255 23.9895 25.9516 23.9895 26.5173C23.9895 27.3482 22.9177 27.8121 21 27.8121C19.0823 27.8121 18.0105 27.3482 18.0105 26.5173C18.0105 25.9516 16.3758 25.8255 9.04214 25.8255H0.07374V30.0192Z" fill="#1D1D1D"/>
</svg>
