<svg width="54" height="38" viewBox="0 0 54 38" fill="none" xmlns="http://www.w3.org/2000/svg">
<path fill-rule="evenodd" clip-rule="evenodd" d="M12.9072 3.5972C6.44893 5.55215 0.841164 7.45576 0.445283 7.82774C0.0499606 8.19972 -0.113312 8.91364 0.08351 9.41453C0.426831 10.2885 2.56616 11.0221 20.302 16.3445L26.0193 18.0602L36.5007 14.9544C42.265 13.2463 47.3036 11.7284 47.6978 11.5803C48.8379 11.1532 48.7188 27.4346 47.5747 28.3621C47.1134 28.7363 46.736 29.6348 46.736 30.3591C46.736 31.752 49.1309 36.7953 50.0579 37.3552C50.734 37.7632 53.9927 32.3343 54 30.7879C54.0028 30.1696 53.6354 29.1864 53.1842 28.603C52.5361 27.7662 52.3594 25.5141 52.3454 17.9138C52.3326 10.8937 52.138 8.13308 51.6286 7.72232C50.6518 6.93575 27.3333 -0.0510639 25.8566 0.000281582C25.1929 0.0237694 19.3654 1.64225 12.9072 3.5972ZM10.9501 23.0741V28.7843L13.6061 29.1722C16.753 29.6315 22.0091 31.6362 24.3665 33.2754L26.0473 34.4449L27.7281 33.2754C30.0855 31.6362 35.3416 29.6315 38.4885 29.1722L41.1445 28.7843V23.0741C41.1445 17.8865 41.055 17.3911 40.1659 17.6615C39.6275 17.8254 36.2334 18.8397 32.6229 19.9152L26.0579 21.8713L19.4828 19.8934C15.8662 18.8058 12.4665 17.7915 11.9286 17.6396C11.0413 17.3895 10.9501 17.8947 10.9501 23.0741Z" fill="#1D1D1D"/>
</svg>
