<svg width="46" height="32" viewBox="0 0 46 32" fill="none" xmlns="http://www.w3.org/2000/svg">
<path fill-rule="evenodd" clip-rule="evenodd" d="M4.55041 1.34584L3.2048 2.69168V14.2683C3.2048 21.3677 3.38894 26.1894 3.68126 26.7354C4.11998 27.555 3.99154 27.6259 2.07002 27.6259C-0.454094 27.6259 -0.63041 28.3064 1.32563 30.4962L2.66894 32H23H43.3311L44.6744 30.4962C46.6304 28.3064 46.4541 27.6259 43.93 27.6259C42.0085 27.6259 41.88 27.555 42.3187 26.7354C42.6111 26.1894 42.7952 21.3677 42.7952 14.2683V2.69168L41.4496 1.34584L40.104 0H23H5.89602L4.55041 1.34584ZM39.3099 3.48593C39.924 4.1006 40.0331 5.75401 40.0331 14.4442C40.0331 21.7908 39.877 24.8352 39.4807 25.2317C38.6889 26.0236 7.31115 26.0236 6.51934 25.2317C6.12298 24.8352 5.96692 21.7908 5.96692 14.4442C5.96692 5.75401 6.07602 4.1006 6.69013 3.48593C7.31944 2.85698 9.44443 2.76259 23 2.76259C36.5556 2.76259 38.6806 2.85698 39.3099 3.48593Z" fill="black"/>
</svg>
