<svg width="49" height="43" viewBox="0 0 49 43" fill="none" xmlns="http://www.w3.org/2000/svg">
<path fill-rule="evenodd" clip-rule="evenodd" d="M42.5164 1.46678C41.4772 2.50268 36.404 4.63789 25.9367 8.44509C17.6413 11.462 10.6442 14.2601 10.3881 14.6628C9.80163 15.584 9.77071 27.3798 10.3519 28.2912C10.5888 28.6625 11.8702 29.3998 13.2001 29.9306C15.5587 30.8722 15.6101 30.9507 15.3095 33.1831C15.0061 35.4394 15.0399 35.4877 17.7382 36.6778C19.2431 37.3419 21.3525 38.0274 22.4256 38.2008C24.3787 38.5168 24.5298 38.4004 26.5733 35.0157C26.9223 34.4379 41.2058 40.2697 42.5223 41.5273C44.487 43.4047 46.8608 43.4978 48.0914 41.745C48.8687 40.6387 49 37.7114 49 21.5061C49 5.30075 48.8687 2.37348 48.0914 1.26717C46.8532 -0.496759 44.3966 -0.408882 42.5164 1.46678ZM0.587757 15.648C-0.195919 17.1088 -0.195919 25.9034 0.587757 27.3641C0.93087 28.0025 1.80499 28.4896 2.60967 28.4896C4.63976 28.4896 5.23554 26.9044 5.23554 21.5061C5.23554 16.1078 4.63976 14.5225 2.60967 14.5225C1.80499 14.5225 0.93087 15.0096 0.587757 15.648Z" fill="#1D1D1D"/>
</svg>
