<svg width="73" height="49" viewBox="0 0 73 49" fill="none" xmlns="http://www.w3.org/2000/svg">
<path fill-rule="evenodd" clip-rule="evenodd" d="M30.8783 1.48441C22.0445 6.9516 26.1041 21.1509 36.5 21.1509C44.5483 21.1509 49.4663 12.7226 45.7075 5.37176C43.1204 0.312864 35.8496 -1.59302 30.8783 1.48441ZM9.74769 10.3136C6.63789 12.2899 5.40784 16.0727 6.78608 19.4199C8.13439 22.6944 9.56519 23.7963 13.0911 24.2765C15.7147 24.6336 16.287 24.4032 18.5946 22.0608C21.9204 18.6848 22.1146 15.1983 19.1625 11.8741C16.5382 8.91973 12.8918 8.31506 9.74769 10.3136ZM56.4932 9.65037C54.0185 10.6656 51.83 14.0579 51.83 16.8789C51.83 18.8293 52.449 20.0749 54.4054 22.0608C56.7203 24.4106 57.2802 24.6344 59.9374 24.2728C63.4538 23.7933 65.3598 22.2194 66.4388 18.9019C68.3681 12.9671 62.2595 7.28505 56.4932 9.65037ZM27.9765 28.8782C17.4375 31.777 15.33 33.9385 15.33 41.8511C15.33 44.9922 15.6877 47.5235 16.206 48.0496C17.4543 49.3168 55.5457 49.3168 56.794 48.0496C57.3181 47.5176 57.67 44.9485 57.67 41.6532C57.67 36.3068 57.5948 36.0741 55.0836 33.6703C49.7605 28.5736 37.1723 26.3483 27.9765 28.8782ZM6.24661 32.6714C0.88111 35.3887 0 36.7396 0 42.2505C0 45.0812 0.37084 47.5369 0.876 48.0496C1.3578 48.5387 3.49305 48.9389 5.621 48.9389H9.49V41.694C9.49 36.3357 9.78565 34.0193 10.6266 32.8018C11.6756 31.2813 11.661 31.1568 10.4441 31.1842C9.71849 31.2005 7.82998 31.8696 6.24661 32.6714ZM62.3734 32.8018C63.2144 34.0193 63.51 36.3357 63.51 41.694V48.9389H67.379C69.507 48.9389 71.6422 48.5387 72.124 48.0496C72.6314 47.5346 73 45.0671 73 42.1875C73 37.5287 72.8562 37.0916 70.7217 35.2687C68.3397 33.2338 64.0758 31.1546 62.2843 31.1546C61.4018 31.1546 61.4156 31.4132 62.3734 32.8018Z" fill="#1D1D1D"/>
</svg>
