<svg width="42" height="47" viewBox="0 0 42 47" fill="none" xmlns="http://www.w3.org/2000/svg">
<path fill-rule="evenodd" clip-rule="evenodd" d="M13.4479 0.687181C13.3269 1.07642 13.0716 2.4976 12.8804 3.8458C12.5332 6.29552 10.7631 10.2258 8.18112 14.2778C6.57436 16.7999 3.78337 18.6449 1.57022 18.6477L0 18.6499V30.8137V42.9775H1.67528C2.59628 42.9775 4.69238 43.8052 6.33283 44.8162L9.31625 46.6549L21.4966 46.8274L33.6775 47L35.1101 45.5799C35.8986 44.7992 36.5433 43.6145 36.5433 42.9475C36.5433 42.2799 37.3466 40.9905 38.3293 40.0814C39.9355 38.5946 40.0862 38.1759 39.8293 35.9163C39.6083 33.9757 39.7751 33.1972 40.5613 32.4917C42.0636 31.1447 42.4182 28.9948 41.4538 27.0797C40.7115 25.6054 40.712 25.1703 41.4578 23.4017C42.4182 21.1229 42.1275 19.6706 40.3877 18.065C39.2857 17.0477 38.3367 16.9527 29.298 16.9527C23.8616 16.9527 19.4165 16.762 19.4205 16.5284C19.4239 16.2947 19.8064 14.7038 20.2701 12.9924C21.8112 7.30257 20.9918 1.98842 18.3573 0.591003C16.7876 -0.241225 13.718 -0.181255 13.4479 0.687181Z" fill="#1D1D1D"/>
</svg>
